<svg viewBox="0 0 100 100" xmlns="http://www.w3.org/2000/svg">
  <g fill-rule="nonzero">
    <path
      d="M68.817 87.455v6.189a6.188 6.188 0 006.188 6.188h6.188a6.188 6.188 0 006.188-6.188v-6.189H68.817zm-55.693 6.189a6.188 6.188 0 006.188 6.188H25.5a6.188 6.188 0 006.188-6.188v-6.189H13.124v6.189zM25.5 56.514h49.505a6.188 6.188 0 006.188-6.187V25.574a6.188 6.188 0 00-6.188-6.188H25.5a6.188 6.188 0 00-6.188 6.188v24.753a6.188 6.188 0 006.188 6.188z"
      fill="currentColor"
      fill-opacity=".4"
    />
    <path
      d="M95.116 25.574H93.57v-9.282C93.57 7.63 74.386.822 50.252.822 26.12.822 6.936 7.629 6.936 16.292v9.282H5.389a4.641 4.641 0 00-4.641 4.641v15.47a4.641 4.641 0 004.64 4.642h1.548v30.94a6.188 6.188 0 006.188 6.188H87.38a6.188 6.188 0 006.188-6.188v-30.94h1.547a4.641 4.641 0 004.641-4.641v-15.47a4.641 4.641 0 00-4.64-4.642zm-75.804 0a6.188 6.188 0 016.188-6.188h49.505a6.188 6.188 0 016.188 6.188v24.753a6.188 6.188 0 01-6.188 6.188H25.5a6.188 6.188 0 01-6.188-6.188V25.574zm3.094 52.6a6.188 6.188 0 110-12.377 6.188 6.188 0 010 12.376zm55.693 0a6.188 6.188 0 110-12.377 6.188 6.188 0 010 12.376z"
      fill="currentColor"
    />
  </g>
</svg>
